<svg version="1" xmlns="http://www.w3.org/2000/svg" width="666.667" height="666.667" viewBox="0 0 500.000000 500.000000"><path d="M64.5 103c-1.1.4-3.1 2-4.5 3.5l-2.5 2.7V380.5l2.2 4c2.5 4.7 6.4 8.5 11.3 11.1 3.4 1.8 9.9 1.9 188.2 1.9H444l3.2-3.3 3.3-3.2.3-16.5c.3-15.3.2-16.8-1.8-19.9-1.1-1.9-2.8-3.8-3.8-4.3-.9-.4-77.5-1-170.2-1.3l-168.5-.5L106 229c-.5-131.4-.1-122.4-6.6-125.5-2.4-1.1-6.8-1.5-18.1-1.4-8.1 0-15.7.4-16.8.9zM380.4 105.4l-3.4 3.4V200c0 65.1.3 91.8 1.1 93.3 2.7 5.3 4 5.7 23.7 5.7h18.4l2.9-2.9 2.9-2.9V201c0-61.3-.3-92.8-1-94.1-2.3-4.1-5.9-4.9-24.1-4.9h-17.1l-3.4 3.4z"/><path d="M232.8 129.9l-3.3 2.9v160.4l3.3 2.9 3.2 2.9h36l3.2-2.9 3.3-2.9V132.8l-3.3-2.9-3.2-2.9h-36l-3.2 2.9zM306.8 178.9l-3.3 2.9v111.1l2.9 3 3 3.1h36.8l2.9-2.9 2.9-2.9V182.1l-2.4-2.8-2.4-2.8-18.5-.3-18.5-.3-3.4 3zM161.5 226.5c-5.9 2.9-6 3.5-6.3 33.5-.4 29.7.1 33.5 4.5 36.9 2.4 1.9 3.9 2.1 20.7 2.1h18.2l3-3.1 2.9-3 .3-29.4c.3-32.5.1-34-5.8-37-4.1-2.1-33.1-2.1-37.5 0z"/></svg>